<svg viewBox="0 0 800 600" xmlns="http://www.w3.org/2000/svg">
  <defs>
    <pattern id="g" width="40" height="40" patternUnits="userSpaceOnUse">
      <path d="M 40 0 L 0 0 0 40" fill="none" stroke="rgba(0,229,255,0.04)" stroke-width="0.5"/>
    </pattern>
    <radialGradient id="c1" cx="50%" cy="50%" r="50%"><stop offset="0%" stop-color="#E03131" stop-opacity="0.35"/><stop offset="100%" stop-color="#E03131" stop-opacity="0"/></radialGradient>
    <radialGradient id="c2" cx="50%" cy="50%" r="50%"><stop offset="0%" stop-color="#00e5ff" stop-opacity="0.3"/><stop offset="100%" stop-color="#00e5ff" stop-opacity="0"/></radialGradient>
    <radialGradient id="c3" cx="50%" cy="50%" r="50%"><stop offset="0%" stop-color="#7b61ff" stop-opacity="0.3"/><stop offset="100%" stop-color="#7b61ff" stop-opacity="0"/></radialGradient>
    <radialGradient id="c4" cx="50%" cy="50%" r="50%"><stop offset="0%" stop-color="#2F9E44" stop-opacity="0.3"/><stop offset="100%" stop-color="#2F9E44" stop-opacity="0"/></radialGradient>
    <radialGradient id="c5" cx="50%" cy="50%" r="50%"><stop offset="0%" stop-color="#f59e0b" stop-opacity="0.3"/><stop offset="100%" stop-color="#f59e0b" stop-opacity="0"/></radialGradient>
    <radialGradient id="c6" cx="50%" cy="50%" r="50%"><stop offset="0%" stop-color="#D6336C" stop-opacity="0.3"/><stop offset="100%" stop-color="#D6336C" stop-opacity="0"/></radialGradient>
    <radialGradient id="c7" cx="50%" cy="50%" r="50%"><stop offset="0%" stop-color="#4263EB" stop-opacity="0.3"/><stop offset="100%" stop-color="#4263EB" stop-opacity="0"/></radialGradient>
  </defs>

  <rect width="800" height="600" fill="#060a0f"/>
  <rect width="800" height="600" fill="url(#g)"/>

  <text x="32" y="42" font-family="monospace" font-size="10" fill="#00e5ff" opacity="0.6" letter-spacing="3">// COMMUNITY DETECTION · PERSONALITY GRAPH</text>

  <!-- ── CLUSTER HALOS ── -->
  <ellipse cx="160" cy="175" rx="90" ry="75" fill="url(#c1)"/>
  <ellipse cx="390" cy="130" rx="85" ry="70" fill="url(#c2)"/>
  <ellipse cx="610" cy="185" rx="90" ry="72" fill="url(#c3)"/>
  <ellipse cx="100" cy="390" rx="78" ry="65" fill="url(#c4)"/>
  <ellipse cx="310" cy="390" rx="82" ry="68" fill="url(#c5)"/>
  <ellipse cx="530" cy="395" rx="80" ry="65" fill="url(#c6)"/>
  <ellipse cx="700" cy="360" rx="72" ry="60" fill="url(#c7)"/>

  <!-- ── INTER-CLUSTER EDGES (sparse, muted) ── -->
  <line x1="228" y1="168" x2="312" y2="138" stroke="rgba(205,214,244,0.08)" stroke-width="1"/>
  <line x1="460" y1="158" x2="528" y2="180" stroke="rgba(205,214,244,0.08)" stroke-width="1"/>
  <line x1="178" y1="238" x2="230" y2="352" stroke="rgba(205,214,244,0.08)" stroke-width="1"/>
  <line x1="390" y1="195" x2="312" y2="348" stroke="rgba(205,214,244,0.08)" stroke-width="1"/>
  <line x1="450" y1="188" x2="462" y2="340" stroke="rgba(205,214,244,0.08)" stroke-width="1"/>
  <line x1="610" y1="248" x2="594" y2="338" stroke="rgba(205,214,244,0.08)" stroke-width="1"/>
  <line x1="672" y1="220" x2="648" y2="318" stroke="rgba(205,214,244,0.07)" stroke-width="1"/>
  <line x1="154" y1="246" x2="106" y2="336" stroke="rgba(205,214,244,0.08)" stroke-width="1"/>
  <line x1="360" y1="400" x2="462" y2="380" stroke="rgba(205,214,244,0.07)" stroke-width="1"/>
  <line x1="600" y1="360" x2="638" y2="330" stroke="rgba(205,214,244,0.07)" stroke-width="1"/>

  <!-- ── CLUSTER 1 EDGES (red) cx=160 cy=175 ── -->
  <line x1="120" y1="152" x2="160" y2="140" stroke="#E03131" stroke-width="0.9" opacity="0.35"/>
  <line x1="160" y1="140" x2="195" y2="155" stroke="#E03131" stroke-width="0.9" opacity="0.35"/>
  <line x1="195" y1="155" x2="210" y2="195" stroke="#E03131" stroke-width="0.9" opacity="0.35"/>
  <line x1="120" y1="152" x2="140" y2="195" stroke="#E03131" stroke-width="0.9" opacity="0.3"/>
  <line x1="140" y1="195" x2="175" y2="210" stroke="#E03131" stroke-width="0.9" opacity="0.35"/>
  <line x1="175" y1="210" x2="210" y2="195" stroke="#E03131" stroke-width="0.9" opacity="0.3"/>
  <line x1="160" y1="140" x2="140" y2="195" stroke="#E03131" stroke-width="0.9" opacity="0.25"/>
  <line x1="110" y1="175" x2="120" y2="152" stroke="#E03131" stroke-width="0.9" opacity="0.3"/>
  <line x1="110" y1="175" x2="140" y2="195" stroke="#E03131" stroke-width="0.9" opacity="0.25"/>

  <!-- ── CLUSTER 2 EDGES (cyan) cx=390 cy=130 ── -->
  <line x1="348" y1="112" x2="390" y2="105" stroke="#00e5ff" stroke-width="0.9" opacity="0.35"/>
  <line x1="390" y1="105" x2="430" y2="118" stroke="#00e5ff" stroke-width="0.9" opacity="0.35"/>
  <line x1="430" y1="118" x2="438" y2="155" stroke="#00e5ff" stroke-width="0.9" opacity="0.35"/>
  <line x1="348" y1="112" x2="355" y2="148" stroke="#00e5ff" stroke-width="0.9" opacity="0.3"/>
  <line x1="355" y1="148" x2="390" y2="158" stroke="#00e5ff" stroke-width="0.9" opacity="0.35"/>
  <line x1="390" y1="158" x2="438" y2="155" stroke="#00e5ff" stroke-width="0.9" opacity="0.3"/>
  <line x1="390" y1="105" x2="390" y2="158" stroke="#00e5ff" stroke-width="0.9" opacity="0.25"/>
  <line x1="365" y1="130" x2="355" y2="148" stroke="#00e5ff" stroke-width="0.9" opacity="0.3"/>

  <!-- ── CLUSTER 3 EDGES (purple) cx=610 cy=185 ── -->
  <line x1="568" y1="158" x2="610" y2="148" stroke="#7b61ff" stroke-width="0.9" opacity="0.35"/>
  <line x1="610" y1="148" x2="650" y2="165" stroke="#7b61ff" stroke-width="0.9" opacity="0.35"/>
  <line x1="650" y1="165" x2="655" y2="205" stroke="#7b61ff" stroke-width="0.9" opacity="0.35"/>
  <line x1="568" y1="158" x2="575" y2="200" stroke="#7b61ff" stroke-width="0.9" opacity="0.3"/>
  <line x1="575" y1="200" x2="610" y2="218" stroke="#7b61ff" stroke-width="0.9" opacity="0.35"/>
  <line x1="610" y1="218" x2="655" y2="205" stroke="#7b61ff" stroke-width="0.9" opacity="0.3"/>
  <line x1="610" y1="148" x2="610" y2="218" stroke="#7b61ff" stroke-width="0.9" opacity="0.25"/>

  <!-- ── CLUSTER 4 EDGES (green) cx=100 cy=390 ── -->
  <line x1="68" y1="362" x2="100" y2="352" stroke="#2F9E44" stroke-width="0.9" opacity="0.35"/>
  <line x1="100" y1="352" x2="135" y2="368" stroke="#2F9E44" stroke-width="0.9" opacity="0.35"/>
  <line x1="135" y1="368" x2="138" y2="408" stroke="#2F9E44" stroke-width="0.9" opacity="0.35"/>
  <line x1="68" y1="362" x2="70" y2="402" stroke="#2F9E44" stroke-width="0.9" opacity="0.3"/>
  <line x1="70" y1="402" x2="100" y2="418" stroke="#2F9E44" stroke-width="0.9" opacity="0.35"/>
  <line x1="100" y1="418" x2="138" y2="408" stroke="#2F9E44" stroke-width="0.9" opacity="0.3"/>

  <!-- ── CLUSTER 5 EDGES (amber) cx=310 cy=390 ── -->
  <line x1="270" y1="362" x2="310" y2="350" stroke="#f59e0b" stroke-width="0.9" opacity="0.35"/>
  <line x1="310" y1="350" x2="348" y2="368" stroke="#f59e0b" stroke-width="0.9" opacity="0.35"/>
  <line x1="348" y1="368" x2="352" y2="408" stroke="#f59e0b" stroke-width="0.9" opacity="0.35"/>
  <line x1="270" y1="362" x2="272" y2="405" stroke="#f59e0b" stroke-width="0.9" opacity="0.3"/>
  <line x1="272" y1="405" x2="310" y2="418" stroke="#f59e0b" stroke-width="0.9" opacity="0.35"/>
  <line x1="310" y1="418" x2="352" y2="408" stroke="#f59e0b" stroke-width="0.9" opacity="0.3"/>
  <line x1="310" y1="350" x2="310" y2="418" stroke="#f59e0b" stroke-width="0.9" opacity="0.25"/>

  <!-- ── CLUSTER 6 EDGES (pink) cx=530 cy=395 ── -->
  <line x1="490" y1="365" x2="530" y2="355" stroke="#D6336C" stroke-width="0.9" opacity="0.35"/>
  <line x1="530" y1="355" x2="568" y2="372" stroke="#D6336C" stroke-width="0.9" opacity="0.35"/>
  <line x1="568" y1="372" x2="570" y2="412" stroke="#D6336C" stroke-width="0.9" opacity="0.35"/>
  <line x1="490" y1="365" x2="492" y2="408" stroke="#D6336C" stroke-width="0.9" opacity="0.3"/>
  <line x1="492" y1="408" x2="530" y2="422" stroke="#D6336C" stroke-width="0.9" opacity="0.35"/>
  <line x1="530" y1="422" x2="570" y2="412" stroke="#D6336C" stroke-width="0.9" opacity="0.3"/>

  <!-- ── CLUSTER 7 EDGES (indigo) cx=700 cy=360 ── -->
  <line x1="660" y1="335" x2="700" y2="328" stroke="#4263EB" stroke-width="0.9" opacity="0.35"/>
  <line x1="700" y1="328" x2="735" y2="345" stroke="#4263EB" stroke-width="0.9" opacity="0.35"/>
  <line x1="735" y1="345" x2="738" y2="382" stroke="#4263EB" stroke-width="0.9" opacity="0.35"/>
  <line x1="660" y1="335" x2="662" y2="375" stroke="#4263EB" stroke-width="0.9" opacity="0.3"/>
  <line x1="662" y1="375" x2="700" y2="390" stroke="#4263EB" stroke-width="0.9" opacity="0.35"/>
  <line x1="700" y1="390" x2="738" y2="382" stroke="#4263EB" stroke-width="0.9" opacity="0.3"/>

  <!-- ── NODES CLUSTER 1 (red) ── -->
  <circle cx="120" cy="152" r="7" fill="#E03131" opacity="0.85"/>
  <circle cx="160" cy="140" r="9" fill="#E03131" opacity="0.9"/>
  <circle cx="195" cy="155" r="6" fill="#E03131" opacity="0.8"/>
  <circle cx="140" cy="195" r="7" fill="#E03131" opacity="0.85"/>
  <circle cx="175" cy="210" r="6" fill="#E03131" opacity="0.8"/>
  <circle cx="210" cy="195" r="7" fill="#E03131" opacity="0.82"/>
  <circle cx="110" cy="175" r="5" fill="#E03131" opacity="0.75"/>
  <circle cx="228" cy="168" r="5" fill="#E03131" opacity="0.72"/>

  <!-- ── NODES CLUSTER 2 (cyan) ── -->
  <circle cx="348" cy="112" r="7" fill="#00e5ff" opacity="0.85"/>
  <circle cx="390" cy="105" r="9" fill="#00e5ff" opacity="0.9"/>
  <circle cx="430" cy="118" r="6" fill="#00e5ff" opacity="0.8"/>
  <circle cx="355" cy="148" r="7" fill="#00e5ff" opacity="0.85"/>
  <circle cx="390" cy="158" r="6" fill="#00e5ff" opacity="0.8"/>
  <circle cx="438" cy="155" r="7" fill="#00e5ff" opacity="0.82"/>
  <circle cx="365" cy="130" r="5" fill="#00e5ff" opacity="0.75"/>
  <circle cx="312" cy="138" r="5" fill="#00e5ff" opacity="0.7"/>

  <!-- ── NODES CLUSTER 3 (purple) ── -->
  <circle cx="568" cy="158" r="7" fill="#7b61ff" opacity="0.85"/>
  <circle cx="610" cy="148" r="9" fill="#7b61ff" opacity="0.9"/>
  <circle cx="650" cy="165" r="6" fill="#7b61ff" opacity="0.8"/>
  <circle cx="575" cy="200" r="7" fill="#7b61ff" opacity="0.85"/>
  <circle cx="610" cy="218" r="6" fill="#7b61ff" opacity="0.8"/>
  <circle cx="655" cy="205" r="7" fill="#7b61ff" opacity="0.82"/>
  <circle cx="528" cy="180" r="5" fill="#7b61ff" opacity="0.7"/>

  <!-- ── NODES CLUSTER 4 (green) ── -->
  <circle cx="68" cy="362" r="6" fill="#2F9E44" opacity="0.85"/>
  <circle cx="100" cy="352" r="8" fill="#2F9E44" opacity="0.9"/>
  <circle cx="135" cy="368" r="6" fill="#2F9E44" opacity="0.8"/>
  <circle cx="70" cy="402" r="6" fill="#2F9E44" opacity="0.82"/>
  <circle cx="100" cy="418" r="7" fill="#2F9E44" opacity="0.85"/>
  <circle cx="138" cy="408" r="5" fill="#2F9E44" opacity="0.78"/>

  <!-- ── NODES CLUSTER 5 (amber) ── -->
  <circle cx="270" cy="362" r="6" fill="#f59e0b" opacity="0.85"/>
  <circle cx="310" cy="350" r="8" fill="#f59e0b" opacity="0.9"/>
  <circle cx="348" cy="368" r="6" fill="#f59e0b" opacity="0.8"/>
  <circle cx="272" cy="405" r="6" fill="#f59e0b" opacity="0.82"/>
  <circle cx="310" cy="418" r="7" fill="#f59e0b" opacity="0.85"/>
  <circle cx="352" cy="408" r="5" fill="#f59e0b" opacity="0.78"/>
  <circle cx="230" cy="352" r="4" fill="#f59e0b" opacity="0.7"/>

  <!-- ── NODES CLUSTER 6 (pink) ── -->
  <circle cx="490" cy="365" r="6" fill="#D6336C" opacity="0.85"/>
  <circle cx="530" cy="355" r="8" fill="#D6336C" opacity="0.9"/>
  <circle cx="568" cy="372" r="6" fill="#D6336C" opacity="0.8"/>
  <circle cx="492" cy="408" r="6" fill="#D6336C" opacity="0.82"/>
  <circle cx="530" cy="422" r="7" fill="#D6336C" opacity="0.85"/>
  <circle cx="570" cy="412" r="5" fill="#D6336C" opacity="0.78"/>
  <circle cx="462" cy="340" r="4" fill="#D6336C" opacity="0.7"/>

  <!-- ── NODES CLUSTER 7 (indigo) ── -->
  <circle cx="660" cy="335" r="6" fill="#4263EB" opacity="0.85"/>
  <circle cx="700" cy="328" r="8" fill="#4263EB" opacity="0.9"/>
  <circle cx="735" cy="345" r="6" fill="#4263EB" opacity="0.8"/>
  <circle cx="662" cy="375" r="6" fill="#4263EB" opacity="0.82"/>
  <circle cx="700" cy="390" r="7" fill="#4263EB" opacity="0.85"/>
  <circle cx="738" cy="382" r="5" fill="#4263EB" opacity="0.78"/>
  <circle cx="648" cy="318" r="4" fill="#4263EB" opacity="0.7"/>

  <!-- ── COMMUNITY LABELS ── -->
  <text x="160" y="238" font-family="monospace" font-size="8" fill="#E03131" text-anchor="middle" opacity="0.9">Community One</text>
  <text x="390" y="180" font-family="monospace" font-size="8" fill="#00e5ff" text-anchor="middle" opacity="0.9">Community Two</text>
  <text x="610" y="242" font-family="monospace" font-size="8" fill="#7b61ff" text-anchor="middle" opacity="0.9">Community Three</text>
  <text x="100" y="442" font-family="monospace" font-size="8" fill="#2F9E44" text-anchor="middle" opacity="0.9">Community Four</text>
  <text x="310" y="442" font-family="monospace" font-size="8" fill="#f59e0b" text-anchor="middle" opacity="0.9">Community Five</text>
  <text x="530" y="448" font-family="monospace" font-size="8" fill="#D6336C" text-anchor="middle" opacity="0.9">Community Six</text>
  <text x="700" y="412" font-family="monospace" font-size="8" fill="#4263EB" text-anchor="middle" opacity="0.9">Community Seven</text>

  <!-- ── STATS PANEL ── -->
  <rect x="52" y="488" width="694" height="68" rx="4" fill="rgba(14,21,32,0.88)" stroke="#1c2840" stroke-width="1"/>

  <text x="104" y="512" font-family="monospace" font-size="8" fill="#6a7a99" letter-spacing="2" text-anchor="middle">NODES</text>
  <text x="104" y="532" font-family="monospace" font-size="14" fill="#cdd6f4" font-weight="bold" text-anchor="middle">~200</text>

  <line x1="180" y1="496" x2="180" y2="548" stroke="#1c2840" stroke-width="1"/>

  <text x="270" y="512" font-family="monospace" font-size="8" fill="#6a7a99" letter-spacing="2" text-anchor="middle">COMMUNITIES</text>
  <text x="270" y="532" font-family="monospace" font-size="14" fill="#00e5ff" font-weight="bold" text-anchor="middle">7</text>

  <line x1="356" y1="496" x2="356" y2="548" stroke="#1c2840" stroke-width="1"/>

  <text x="448" y="512" font-family="monospace" font-size="8" fill="#6a7a99" letter-spacing="2" text-anchor="middle">ALGORITHM</text>
  <text x="448" y="532" font-family="monospace" font-size="11" fill="#7b61ff" font-weight="bold" text-anchor="middle">Louvain</text>

  <line x1="544" y1="496" x2="544" y2="548" stroke="#1c2840" stroke-width="1"/>

  <text x="628" y="512" font-family="monospace" font-size="8" fill="#6a7a99" letter-spacing="2" text-anchor="middle">TRAIT DIMS</text>
  <text x="628" y="532" font-family="monospace" font-size="14" fill="#f59e0b" font-weight="bold" text-anchor="middle">9</text>

  <line x1="710" y1="496" x2="710" y2="548" stroke="#1c2840" stroke-width="1"/>

  <text x="560" y="550" font-family="monospace" font-size="8" fill="#6a7a99" text-anchor="middle" opacity="0.7">Anonymised · Louvain community detection on similarity graph</text>
</svg>
