<svg viewBox="0 0 800 600" xmlns="http://www.w3.org/2000/svg">
  <defs>
    <pattern id="g" width="40" height="40" patternUnits="userSpaceOnUse">
      <path d="M 40 0 L 0 0 0 40" fill="none" stroke="rgba(0,229,255,0.04)" stroke-width="0.5"/>
    </pattern>
    <linearGradient id="lg1" x1="0" y1="0" x2="1" y2="0">
      <stop offset="0%" stop-color="#00e5ff" stop-opacity="0.6"/>
      <stop offset="100%" stop-color="#7b61ff" stop-opacity="0.6"/>
    </linearGradient>
    <linearGradient id="lg2" x1="0" y1="0" x2="1" y2="0">
      <stop offset="0%" stop-color="#7b61ff" stop-opacity="0.6"/>
      <stop offset="100%" stop-color="#f59e0b" stop-opacity="0.6"/>
    </linearGradient>
    <radialGradient id="glow1" cx="50%" cy="50%" r="50%">
      <stop offset="0%" stop-color="#00e5ff" stop-opacity="0.18"/>
      <stop offset="100%" stop-color="#00e5ff" stop-opacity="0"/>
    </radialGradient>
    <radialGradient id="glow2" cx="50%" cy="50%" r="50%">
      <stop offset="0%" stop-color="#7b61ff" stop-opacity="0.18"/>
      <stop offset="100%" stop-color="#7b61ff" stop-opacity="0"/>
    </radialGradient>
    <radialGradient id="glow3" cx="50%" cy="50%" r="50%">
      <stop offset="0%" stop-color="#f59e0b" stop-opacity="0.15"/>
      <stop offset="100%" stop-color="#f59e0b" stop-opacity="0"/>
    </radialGradient>
  </defs>

  <!-- Background -->
  <rect width="800" height="600" fill="#060a0f"/>
  <rect width="800" height="600" fill="url(#g)"/>

  <!-- Section labels -->
  <text x="52" y="42" font-family="monospace" font-size="10" fill="#00e5ff" opacity="0.6" letter-spacing="3">// GENERATIVE AI · NLP · TRANSFORMERS</text>
  <text x="70" y="84" font-family="monospace" font-size="8" fill="#6a7a99" letter-spacing="2">ENCODER</text>
  <text x="316" y="84" font-family="monospace" font-size="8" fill="#6a7a99" letter-spacing="2">SELF-ATTENTION</text>
  <text x="618" y="84" font-family="monospace" font-size="8" fill="#6a7a99" letter-spacing="2">DECODER</text>

  <!-- ── INPUT TOKENS ── -->
  <rect x="52" y="100" width="100" height="22" rx="3" fill="rgba(0,229,255,0.08)" stroke="#00e5ff" stroke-width="0.8"/>
  <text x="102" y="115" font-family="monospace" font-size="9" fill="#00e5ff" text-anchor="middle">"review"</text>

  <rect x="52" y="132" width="100" height="22" rx="3" fill="rgba(0,229,255,0.07)" stroke="#00e5ff" stroke-width="0.8" opacity="0.88"/>
  <text x="102" y="147" font-family="monospace" font-size="9" fill="#00e5ff" text-anchor="middle">"brand"</text>

  <rect x="52" y="164" width="100" height="22" rx="3" fill="rgba(0,229,255,0.06)" stroke="#00e5ff" stroke-width="0.8" opacity="0.78"/>
  <text x="102" y="179" font-family="monospace" font-size="9" fill="#00e5ff" text-anchor="middle">"sentiment"</text>

  <rect x="52" y="196" width="100" height="22" rx="3" fill="rgba(0,229,255,0.06)" stroke="#00e5ff" stroke-width="0.8" opacity="0.7"/>
  <text x="102" y="211" font-family="monospace" font-size="9" fill="#00e5ff" text-anchor="middle">"quality"</text>

  <rect x="52" y="228" width="100" height="22" rx="3" fill="rgba(0,229,255,0.05)" stroke="#00e5ff" stroke-width="0.8" opacity="0.62"/>
  <text x="102" y="243" font-family="monospace" font-size="9" fill="#00e5ff" text-anchor="middle">"market"</text>

  <rect x="52" y="260" width="100" height="22" rx="3" fill="rgba(0,229,255,0.04)" stroke="#00e5ff" stroke-width="0.8" opacity="0.55"/>
  <text x="102" y="275" font-family="monospace" font-size="9" fill="#00e5ff" text-anchor="middle">"insight"</text>

  <!-- encoder → attention arrows -->
  <line x1="152" y1="111" x2="278" y2="124" stroke="rgba(0,229,255,0.2)" stroke-width="0.7"/>
  <line x1="152" y1="143" x2="278" y2="148" stroke="rgba(0,229,255,0.18)" stroke-width="0.7"/>
  <line x1="152" y1="175" x2="278" y2="172" stroke="rgba(0,229,255,0.18)" stroke-width="0.7"/>
  <line x1="152" y1="207" x2="278" y2="196" stroke="rgba(0,229,255,0.15)" stroke-width="0.7"/>
  <line x1="152" y1="239" x2="278" y2="220" stroke="rgba(0,229,255,0.15)" stroke-width="0.7"/>
  <line x1="152" y1="271" x2="278" y2="244" stroke="rgba(0,229,255,0.12)" stroke-width="0.7"/>

  <!-- ── ATTENTION HEATMAP 6×6 (cell 27×27, start x=278 y=100) ── -->
  <!-- Row 0 -->
  <rect x="278" y="100" width="27" height="27" fill="#00e5ff" opacity="0.82"/>
  <rect x="305" y="100" width="27" height="27" fill="#7b61ff" opacity="0.32"/>
  <rect x="332" y="100" width="27" height="27" fill="#00e5ff" opacity="0.09"/>
  <rect x="359" y="100" width="27" height="27" fill="#00e5ff" opacity="0.05"/>
  <rect x="386" y="100" width="27" height="27" fill="#00e5ff" opacity="0.04"/>
  <rect x="413" y="100" width="27" height="27" fill="#00e5ff" opacity="0.04"/>
  <!-- Row 1 -->
  <rect x="278" y="127" width="27" height="27" fill="#7b61ff" opacity="0.28"/>
  <rect x="305" y="127" width="27" height="27" fill="#00e5ff" opacity="0.76"/>
  <rect x="332" y="127" width="27" height="27" fill="#7b61ff" opacity="0.28"/>
  <rect x="359" y="127" width="27" height="27" fill="#00e5ff" opacity="0.09"/>
  <rect x="386" y="127" width="27" height="27" fill="#00e5ff" opacity="0.04"/>
  <rect x="413" y="127" width="27" height="27" fill="#00e5ff" opacity="0.04"/>
  <!-- Row 2 -->
  <rect x="278" y="154" width="27" height="27" fill="#00e5ff" opacity="0.09"/>
  <rect x="305" y="154" width="27" height="27" fill="#7b61ff" opacity="0.26"/>
  <rect x="332" y="154" width="27" height="27" fill="#00e5ff" opacity="0.80"/>
  <rect x="359" y="154" width="27" height="27" fill="#7b61ff" opacity="0.24"/>
  <rect x="386" y="154" width="27" height="27" fill="#00e5ff" opacity="0.09"/>
  <rect x="413" y="154" width="27" height="27" fill="#00e5ff" opacity="0.04"/>
  <!-- Row 3 -->
  <rect x="278" y="181" width="27" height="27" fill="#00e5ff" opacity="0.04"/>
  <rect x="305" y="181" width="27" height="27" fill="#00e5ff" opacity="0.09"/>
  <rect x="332" y="181" width="27" height="27" fill="#7b61ff" opacity="0.26"/>
  <rect x="359" y="181" width="27" height="27" fill="#00e5ff" opacity="0.80"/>
  <rect x="386" y="181" width="27" height="27" fill="#7b61ff" opacity="0.22"/>
  <rect x="413" y="181" width="27" height="27" fill="#00e5ff" opacity="0.09"/>
  <!-- Row 4 -->
  <rect x="278" y="208" width="27" height="27" fill="#00e5ff" opacity="0.04"/>
  <rect x="305" y="208" width="27" height="27" fill="#00e5ff" opacity="0.05"/>
  <rect x="332" y="208" width="27" height="27" fill="#00e5ff" opacity="0.09"/>
  <rect x="359" y="208" width="27" height="27" fill="#7b61ff" opacity="0.26"/>
  <rect x="386" y="208" width="27" height="27" fill="#00e5ff" opacity="0.72"/>
  <rect x="413" y="208" width="27" height="27" fill="#f59e0b" opacity="0.32"/>
  <!-- Row 5 -->
  <rect x="278" y="235" width="27" height="27" fill="#00e5ff" opacity="0.04"/>
  <rect x="305" y="235" width="27" height="27" fill="#00e5ff" opacity="0.04"/>
  <rect x="332" y="235" width="27" height="27" fill="#00e5ff" opacity="0.05"/>
  <rect x="359" y="235" width="27" height="27" fill="#00e5ff" opacity="0.09"/>
  <rect x="386" y="235" width="27" height="27" fill="#f59e0b" opacity="0.32"/>
  <rect x="413" y="235" width="27" height="27" fill="#00e5ff" opacity="0.82"/>

  <!-- Heatmap border -->
  <rect x="278" y="100" width="162" height="162" fill="none" stroke="#1c2840" stroke-width="1"/>

  <!-- Column tick labels -->
  <text x="286" y="96" font-family="monospace" font-size="7" fill="#6a7a99">T1</text>
  <text x="313" y="96" font-family="monospace" font-size="7" fill="#6a7a99">T2</text>
  <text x="340" y="96" font-family="monospace" font-size="7" fill="#6a7a99">T3</text>
  <text x="367" y="96" font-family="monospace" font-size="7" fill="#6a7a99">T4</text>
  <text x="394" y="96" font-family="monospace" font-size="7" fill="#6a7a99">T5</text>
  <text x="421" y="96" font-family="monospace" font-size="7" fill="#6a7a99">T6</text>

  <!-- attention → decoder arrows -->
  <line x1="440" y1="124" x2="600" y2="114" stroke="rgba(245,158,11,0.25)" stroke-width="0.7"/>
  <line x1="440" y1="148" x2="600" y2="146" stroke="rgba(245,158,11,0.22)" stroke-width="0.7"/>
  <line x1="440" y1="172" x2="600" y2="178" stroke="rgba(245,158,11,0.22)" stroke-width="0.7"/>
  <line x1="440" y1="196" x2="600" y2="210" stroke="rgba(245,158,11,0.18)" stroke-width="0.7"/>
  <line x1="440" y1="220" x2="600" y2="242" stroke="rgba(245,158,11,0.15)" stroke-width="0.7"/>
  <line x1="440" y1="244" x2="600" y2="274" stroke="rgba(245,158,11,0.12)" stroke-width="0.7"/>

  <!-- ── OUTPUT TOKENS ── -->
  <rect x="600" y="102" width="148" height="22" rx="3" fill="rgba(245,158,11,0.08)" stroke="#f59e0b" stroke-width="0.8"/>
  <text x="674" y="117" font-family="monospace" font-size="9" fill="#f59e0b" text-anchor="middle">"highly positive"</text>

  <rect x="600" y="134" width="148" height="22" rx="3" fill="rgba(245,158,11,0.07)" stroke="#f59e0b" stroke-width="0.8" opacity="0.88"/>
  <text x="674" y="149" font-family="monospace" font-size="9" fill="#f59e0b" text-anchor="middle">"brand affinity"</text>

  <rect x="600" y="166" width="148" height="22" rx="3" fill="rgba(245,158,11,0.06)" stroke="#f59e0b" stroke-width="0.8" opacity="0.78"/>
  <text x="674" y="181" font-family="monospace" font-size="9" fill="#f59e0b" text-anchor="middle">"key themes"</text>

  <rect x="600" y="198" width="148" height="22" rx="3" fill="rgba(245,158,11,0.06)" stroke="#f59e0b" stroke-width="0.8" opacity="0.68"/>
  <text x="674" y="213" font-family="monospace" font-size="9" fill="#f59e0b" text-anchor="middle">"pain points"</text>

  <rect x="600" y="230" width="148" height="22" rx="3" fill="rgba(245,158,11,0.05)" stroke="#f59e0b" stroke-width="0.8" opacity="0.58"/>
  <text x="674" y="245" font-family="monospace" font-size="9" fill="#f59e0b" text-anchor="middle">"recommend."</text>

  <rect x="600" y="262" width="148" height="22" rx="3" fill="rgba(245,158,11,0.04)" stroke="#f59e0b" stroke-width="0.8" opacity="0.48"/>
  <text x="674" y="277" font-family="monospace" font-size="9" fill="#f59e0b" text-anchor="middle">"summary score"</text>

  <!-- ── INFO PANELS ── -->
  <rect x="52" y="330" width="210" height="80" rx="4" fill="rgba(14,21,32,0.85)" stroke="#1c2840" stroke-width="1"/>
  <text x="68" y="352" font-family="monospace" font-size="8" fill="#6a7a99" letter-spacing="2">ARCHITECTURE</text>
  <text x="68" y="372" font-family="monospace" font-size="11" fill="#cdd6f4">LSTM + Attention</text>
  <text x="68" y="390" font-family="monospace" font-size="8" fill="#6a7a99">Seq2Seq · Encoder-Decoder</text>
  <text x="68" y="404" font-family="monospace" font-size="8" fill="#6a7a99">Reviews · News · Tweets</text>

  <rect x="292" y="330" width="210" height="80" rx="4" fill="rgba(14,21,32,0.85)" stroke="#1c2840" stroke-width="1"/>
  <text x="308" y="352" font-family="monospace" font-size="8" fill="#6a7a99" letter-spacing="2">PROJECT</text>
  <text x="308" y="374" font-family="monospace" font-size="18" fill="#00e5ff" font-weight="bold" letter-spacing="4">ARTy</text>
  <text x="308" y="392" font-family="monospace" font-size="8" fill="#6a7a99">Automated Review Text</text>
  <text x="308" y="406" font-family="monospace" font-size="8" fill="#6a7a99">Clients: L'Oréal · Shell</text>

  <rect x="534" y="330" width="214" height="80" rx="4" fill="rgba(14,21,32,0.85)" stroke="#1c2840" stroke-width="1"/>
  <text x="550" y="352" font-family="monospace" font-size="8" fill="#6a7a99" letter-spacing="2">CAPABILITIES</text>
  <text x="550" y="370" font-family="monospace" font-size="9" fill="#cdd6f4">Summarisation · Translation</text>
  <text x="550" y="386" font-family="monospace" font-size="9" fill="#cdd6f4">Synthetic Insight Generation</text>
  <text x="550" y="402" font-family="monospace" font-size="9" fill="#cdd6f4">GANs · Siamese Networks</text>

  <!-- ── PIPELINE FLOW ── -->
  <text x="52" y="444" font-family="monospace" font-size="8" fill="#6a7a99" letter-spacing="2">PIPELINE</text>

  <!-- Step boxes -->
  <rect x="52" y="454" width="88" height="24" rx="3" fill="rgba(0,229,255,0.06)" stroke="#00e5ff" stroke-width="0.8"/>
  <text x="96" y="470" font-family="monospace" font-size="9" fill="#00e5ff" text-anchor="middle">Raw Text</text>
  <polygon points="140,462 140,468 148,465" fill="#1c2840"/>

  <rect x="148" y="454" width="88" height="24" rx="3" fill="rgba(0,229,255,0.06)" stroke="#00e5ff" stroke-width="0.8"/>
  <text x="192" y="470" font-family="monospace" font-size="9" fill="#00e5ff" text-anchor="middle">Tokenise</text>
  <polygon points="236,462 236,468 244,465" fill="#1c2840"/>

  <rect x="244" y="454" width="88" height="24" rx="3" fill="rgba(123,97,255,0.06)" stroke="#7b61ff" stroke-width="0.8"/>
  <text x="288" y="470" font-family="monospace" font-size="9" fill="#7b61ff" text-anchor="middle">Embed</text>
  <polygon points="332,462 332,468 340,465" fill="#1c2840"/>

  <rect x="340" y="454" width="88" height="24" rx="3" fill="rgba(123,97,255,0.06)" stroke="#7b61ff" stroke-width="0.8"/>
  <text x="384" y="470" font-family="monospace" font-size="9" fill="#7b61ff" text-anchor="middle">Attend</text>
  <polygon points="428,462 428,468 436,465" fill="#1c2840"/>

  <rect x="436" y="454" width="88" height="24" rx="3" fill="rgba(245,158,11,0.06)" stroke="#f59e0b" stroke-width="0.8"/>
  <text x="480" y="470" font-family="monospace" font-size="9" fill="#f59e0b" text-anchor="middle">Decode</text>
  <polygon points="524,462 524,468 532,465" fill="#1c2840"/>

  <rect x="532" y="454" width="88" height="24" rx="3" fill="rgba(245,158,11,0.06)" stroke="#f59e0b" stroke-width="0.8"/>
  <text x="576" y="470" font-family="monospace" font-size="9" fill="#f59e0b" text-anchor="middle">Insights</text>
  <polygon points="620,462 620,468 628,465" fill="#1c2840"/>

  <rect x="628" y="454" width="120" height="24" rx="3" fill="rgba(245,158,11,0.08)" stroke="#f59e0b" stroke-width="1.2"/>
  <text x="688" y="470" font-family="monospace" font-size="9" fill="#f59e0b" text-anchor="middle">Brand Narrative</text>

  <!-- ── LEGEND ── -->
  <rect x="52" y="512" width="10" height="10" fill="#00e5ff" opacity="0.7"/>
  <text x="68" y="521" font-family="monospace" font-size="8" fill="#6a7a99">Input / Encoding</text>
  <rect x="200" y="512" width="10" height="10" fill="#7b61ff" opacity="0.7"/>
  <text x="216" y="521" font-family="monospace" font-size="8" fill="#6a7a99">Attention Layer</text>
  <rect x="340" y="512" width="10" height="10" fill="#f59e0b" opacity="0.7"/>
  <text x="356" y="521" font-family="monospace" font-size="8" fill="#6a7a99">Generation / Output</text>

  <!-- Glow halos on heatmap diag -->
  <ellipse cx="291" cy="113" rx="18" ry="18" fill="url(#glow1)"/>
  <ellipse cx="318" cy="140" rx="18" ry="18" fill="url(#glow1)"/>
  <ellipse cx="345" cy="167" rx="18" ry="18" fill="url(#glow2)"/>
  <ellipse cx="372" cy="194" rx="18" ry="18" fill="url(#glow1)"/>
  <ellipse cx="399" cy="221" rx="18" ry="18" fill="url(#glow1)"/>
  <ellipse cx="426" cy="248" rx="18" ry="18" fill="url(#glow3)"/>
</svg>
