<svg viewBox="0 0 800 600" xmlns="http://www.w3.org/2000/svg">
  <defs>
    <linearGradient id="fill-total" x1="0" y1="0" x2="0" y2="1">
      <stop offset="0%" stop-color="#00e5ff" stop-opacity="0.28"/>
      <stop offset="100%" stop-color="#00e5ff" stop-opacity="0"/>
    </linearGradient>
    <linearGradient id="fill-green" x1="0" y1="0" x2="0" y2="1">
      <stop offset="0%" stop-color="#4ade80" stop-opacity="0.12"/>
      <stop offset="100%" stop-color="#4ade80" stop-opacity="0"/>
    </linearGradient>
    <linearGradient id="fill-orange" x1="0" y1="0" x2="0" y2="1">
      <stop offset="0%" stop-color="#f97316" stop-opacity="0.10"/>
      <stop offset="100%" stop-color="#f97316" stop-opacity="0"/>
    </linearGradient>
  </defs>

  <!-- Background -->
  <rect width="800" height="600" fill="#060a0f"/>

  <!-- Grid horizontals -->
  <line x1="60" y1="110" x2="748" y2="110" stroke="#1c2840" stroke-width="1"/>
  <line x1="60" y1="180" x2="748" y2="180" stroke="#1c2840" stroke-width="1"/>
  <line x1="60" y1="250" x2="748" y2="250" stroke="#1c2840" stroke-width="1"/>
  <line x1="60" y1="320" x2="748" y2="320" stroke="#1c2840" stroke-width="1"/>
  <line x1="60" y1="390" x2="748" y2="390" stroke="#1c2840" stroke-width="1"/>
  <!-- Y axis -->
  <line x1="60" y1="80" x2="60" y2="420" stroke="#2a3854" stroke-width="1.5"/>

  <!-- Year ticks -->
  <line x1="229" y1="415" x2="229" y2="425" stroke="#2a3854" stroke-width="1"/>
  <line x1="398" y1="415" x2="398" y2="425" stroke="#2a3854" stroke-width="1"/>
  <line x1="567" y1="415" x2="567" y2="425" stroke="#2a3854" stroke-width="1"/>
  <line x1="736" y1="415" x2="736" y2="425" stroke="#2a3854" stroke-width="1"/>

  <!-- Category lines (faint) -->
  <!-- apoyo gubernamental — green, growing -->
  <path d="M60,370 C120,360 175,345 229,332 C290,318 330,348 398,338
           C460,328 510,295 567,278 C628,262 700,250 748,242"
        fill="none" stroke="#4ade80" stroke-width="1.3" stroke-opacity="0.6"/>
  <path d="M60,370 C120,360 175,345 229,332 C290,318 330,348 398,338
           C460,328 510,295 567,278 C628,262 700,250 748,242 L748,420 L60,420 Z"
        fill="url(#fill-green)"/>

  <!-- esparcimiento — pink, seasonal -->
  <path d="M60,295 C110,265 148,305 229,318 C295,328 325,230 398,218
           C458,208 505,272 567,258 C625,245 695,262 748,255"
        fill="none" stroke="#e879f9" stroke-width="1.2" stroke-opacity="0.5"/>

  <!-- credito y deuda — red, counter-cyclical -->
  <path d="M60,345 C108,315 148,372 229,382 C286,390 322,295 398,272
           C458,255 508,338 567,325 C622,314 692,298 748,290"
        fill="none" stroke="#f43f5e" stroke-width="1.2" stroke-opacity="0.5"/>

  <!-- inversion y ahorro — indigo -->
  <path d="M60,330 C115,318 158,298 229,285 C292,274 328,342 398,352
           C456,360 506,275 567,260 C626,247 696,238 748,230"
        fill="none" stroke="#818cf8" stroke-width="1.2" stroke-opacity="0.5"/>

  <!-- empleo — yellow -->
  <path d="M60,340 C118,328 158,308 229,296 C290,285 324,348 398,358
           C456,366 506,280 567,265 C626,252 696,242 748,235"
        fill="none" stroke="#fbbf24" stroke-width="1.1" stroke-opacity="0.45"/>

  <!-- Total line (cyan, primary) -->
  <path d="M60,318 C130,295 172,258 229,247 C292,235 328,308 398,318
           C458,326 490,222 567,208 C630,196 698,228 748,220"
        fill="none" stroke="#00e5ff" stroke-width="2.8"/>
  <path d="M60,318 C130,295 172,258 229,247 C292,235 328,308 398,318
           C458,326 490,222 567,208 C630,196 698,228 748,220 L748,420 L60,420 Z"
        fill="url(#fill-total)"/>

  <!-- Event: Banxico peak Aug 2023 (~x=289) -->
  <line x1="289" y1="90" x2="289" y2="340" stroke="#fbbf24" stroke-width="1" stroke-dasharray="3,3" stroke-opacity="0.65"/>
  <circle cx="289" cy="247" r="4" fill="none" stroke="#fbbf24" stroke-width="1.5"/>
  <text x="294" y="130" fill="#fbbf24" font-size="8" font-family="monospace" transform="rotate(-90,294,130)">BANXICO 11.25%</text>

  <!-- Event: Elections Jun 2024 (~x=433) -->
  <line x1="433" y1="90" x2="433" y2="355" stroke="#a78bfa" stroke-width="1" stroke-dasharray="3,3" stroke-opacity="0.65"/>
  <circle cx="433" cy="318" r="4" fill="none" stroke="#a78bfa" stroke-width="1.5"/>
  <text x="438" y="130" fill="#a78bfa" font-size="8" font-family="monospace" transform="rotate(-90,438,130)">ELECCIONES</text>

  <!-- Key dots on total line -->
  <circle cx="60"  cy="318" r="3.5" fill="#00e5ff"/>
  <circle cx="229" cy="247" r="3.5" fill="#00e5ff"/>
  <circle cx="398" cy="318" r="3.5" fill="#00e5ff"/>
  <circle cx="567" cy="208" r="4.5" fill="#00e5ff"/>
  <circle cx="748" cy="220" r="3.5" fill="#00e5ff"/>

  <!-- Mini SHAP beeswarm strip (bottom right) -->
  <!-- Horizontal bars suggesting feature attribution -->
  <text x="430" y="410" fill="#2a3854" font-size="8" font-family="monospace" letter-spacing="2">SHAP · RIDGE</text>
  <line x1="430" y1="420" x2="748" y2="420" stroke="#1c2840" stroke-width="0.5"/>
  <!-- beeswarm dot rows -->
  <circle cx="530" cy="432" r="2.5" fill="#4ade80" fill-opacity="0.8"/>
  <circle cx="548" cy="432" r="2.5" fill="#4ade80" fill-opacity="0.7"/>
  <circle cx="563" cy="432" r="2.5" fill="#4ade80" fill-opacity="0.5"/>
  <circle cx="575" cy="432" r="2.5" fill="#4ade80" fill-opacity="0.35"/>
  <circle cx="510" cy="432" r="2.5" fill="#00e5ff" fill-opacity="0.5"/>
  <circle cx="495" cy="432" r="2.5" fill="#00e5ff" fill-opacity="0.3"/>

  <circle cx="525" cy="444" r="2.5" fill="#f43f5e" fill-opacity="0.8"/>
  <circle cx="510" cy="444" r="2.5" fill="#f43f5e" fill-opacity="0.6"/>
  <circle cx="495" cy="444" r="2.5" fill="#f43f5e" fill-opacity="0.4"/>
  <circle cx="540" cy="444" r="2.5" fill="#818cf8" fill-opacity="0.6"/>
  <circle cx="555" cy="444" r="2.5" fill="#818cf8" fill-opacity="0.4"/>

  <circle cx="520" cy="456" r="2.5" fill="#fbbf24" fill-opacity="0.8"/>
  <circle cx="507" cy="456" r="2.5" fill="#fbbf24" fill-opacity="0.5"/>
  <circle cx="534" cy="456" r="2.5" fill="#e879f9" fill-opacity="0.7"/>
  <circle cx="548" cy="456" r="2.5" fill="#e879f9" fill-opacity="0.4"/>
  <circle cx="493" cy="456" r="2.5" fill="#fbbf24" fill-opacity="0.3"/>

  <line x1="480" y1="426" x2="480" y2="462" stroke="#2a3854" stroke-width="0.8" stroke-dasharray="2,2"/>

  <!-- Axis labels -->
  <text x="53"  y="438" fill="#2a3854" font-size="9" font-family="monospace">2022</text>
  <text x="220" y="438" fill="#2a3854" font-size="9" font-family="monospace">2023</text>
  <text x="389" y="438" fill="#2a3854" font-size="9" font-family="monospace">2024</text>
  <text x="558" y="438" fill="#2a3854" font-size="9" font-family="monospace">2025</text>
  <text x="727" y="438" fill="#2a3854" font-size="9" font-family="monospace">2026</text>

  <!-- Legend -->
  <line x1="60" y1="533" x2="84" y2="533" stroke="#00e5ff" stroke-width="2.5"/>
  <text x="89" y="537" fill="#4a5a78" font-size="10" font-family="monospace">ICCMX TOTAL</text>
  <line x1="200" y1="533" x2="218" y2="533" stroke="#4ade80" stroke-width="1.5"/>
  <text x="223" y="537" fill="#4a5a78" font-size="10" font-family="monospace">APOYO GOB.</text>
  <line x1="335" y1="533" x2="353" y2="533" stroke="#f43f5e" stroke-width="1.5"/>
  <text x="358" y="537" fill="#4a5a78" font-size="10" font-family="monospace">CRÉDITO</text>
  <line x1="445" y1="533" x2="463" y2="533" stroke="#818cf8" stroke-width="1.5"/>
  <text x="468" y="537" fill="#4a5a78" font-size="10" font-family="monospace">INVERSIÓN</text>

  <!-- Title label -->
  <text x="60" y="58" fill="#3a4a68" font-size="10" font-family="monospace" letter-spacing="3">ICCMX · AUTOENCODER + RIDGE + SHAP · MX 2022–2026</text>
</svg>
