<svg viewBox="0 0 800 600" xmlns="http://www.w3.org/2000/svg">
  <defs>
    <linearGradient id="fill-a" x1="0" y1="0" x2="0" y2="1">
      <stop offset="0%" stop-color="#00e5ff" stop-opacity="0.25"/>
      <stop offset="100%" stop-color="#00e5ff" stop-opacity="0"/>
    </linearGradient>
    <linearGradient id="fill-b" x1="0" y1="0" x2="0" y2="1">
      <stop offset="0%" stop-color="#f43f5e" stop-opacity="0.12"/>
      <stop offset="100%" stop-color="#f43f5e" stop-opacity="0"/>
    </linearGradient>
    <linearGradient id="fill-c" x1="0" y1="0" x2="0" y2="1">
      <stop offset="0%" stop-color="#818cf8" stop-opacity="0.12"/>
      <stop offset="100%" stop-color="#818cf8" stop-opacity="0"/>
    </linearGradient>
  </defs>

  <!-- Background -->
  <rect width="800" height="600" fill="#060a0f"/>

  <!-- Grid horizontals -->
  <line x1="60" y1="120" x2="748" y2="120" stroke="#1c2840" stroke-width="1"/>
  <line x1="60" y1="200" x2="748" y2="200" stroke="#1c2840" stroke-width="1"/>
  <line x1="60" y1="280" x2="748" y2="280" stroke="#1c2840" stroke-width="1"/>
  <line x1="60" y1="360" x2="748" y2="360" stroke="#1c2840" stroke-width="1"/>
  <line x1="60" y1="440" x2="748" y2="440" stroke="#1c2840" stroke-width="1"/>
  <!-- Y axis -->
  <line x1="60" y1="80" x2="60" y2="460" stroke="#2a3854" stroke-width="1.5"/>

  <!-- Year tick marks -->
  <line x1="228" y1="455" x2="228" y2="465" stroke="#2a3854" stroke-width="1"/>
  <line x1="396" y1="455" x2="396" y2="465" stroke="#2a3854" stroke-width="1"/>
  <line x1="564" y1="455" x2="564" y2="465" stroke="#2a3854" stroke-width="1"/>

  <!-- Category lines (faint) -->
  <path d="M60,340 C120,320 160,360 228,370 C300,380 340,340 396,310 C450,285 490,300 564,280 C620,265 680,250 748,245"
        fill="none" stroke="#f43f5e" stroke-width="1.2" stroke-opacity="0.55"/>
  <path d="M60,310 C100,290 150,350 228,355 C290,360 340,290 396,270 C450,255 510,330 564,320 C620,310 690,295 748,285"
        fill="none" stroke="#818cf8" stroke-width="1.2" stroke-opacity="0.55"/>
  <path d="M60,400 C110,380 150,330 228,315 C300,300 340,380 396,390 C455,400 490,320 564,300 C620,285 685,260 748,250"
        fill="none" stroke="#4ade80" stroke-width="1.2" stroke-opacity="0.55"/>

  <!-- Mini bar chart (SHAP style) at bottom strip -->
  <rect x="65"  y="410" width="18" height="32" fill="#00e5ff" fill-opacity="0.35" rx="1"/>
  <rect x="90"  y="418" width="18" height="24" fill="#f43f5e" fill-opacity="0.35" rx="1"/>
  <rect x="115" y="405" width="18" height="37" fill="#818cf8" fill-opacity="0.35" rx="1"/>
  <rect x="140" y="420" width="18" height="22" fill="#4ade80" fill-opacity="0.35" rx="1"/>
  <rect x="165" y="415" width="18" height="27" fill="#fbbf24" fill-opacity="0.35" rx="1"/>
  <rect x="190" y="408" width="18" height="34" fill="#00e5ff" fill-opacity="0.2"  rx="1"/>
  <rect x="215" y="422" width="18" height="20" fill="#f43f5e" fill-opacity="0.2"  rx="1"/>

  <!-- UK-CCI total line (cyan, primary) -->
  <path d="M60,320 C110,295 150,270 228,255 C300,240 345,330 396,340
           C445,350 480,220 564,205 C630,195 690,235 748,228"
        fill="none" stroke="#00e5ff" stroke-width="2.5"/>
  <path d="M60,320 C110,295 150,270 228,255 C300,240 345,330 396,340
           C445,350 480,220 564,205 C630,195 690,235 748,228 L748,460 L60,460 Z"
        fill="url(#fill-a)"/>

  <!-- Event marker — mini-budget spike -->
  <line x1="290" y1="100" x2="290" y2="380" stroke="#f43f5e" stroke-width="1" stroke-dasharray="3,3" stroke-opacity="0.6"/>
  <circle cx="290" cy="340" r="4" fill="none" stroke="#f43f5e" stroke-width="1.5"/>
  <text x="295" y="138" fill="#f43f5e" font-size="8" font-family="monospace" transform="rotate(-90,295,138)">MINI-BUDGET</text>

  <!-- Event marker — BoE peak -->
  <line x1="478" y1="100" x2="478" y2="300" stroke="#fbbf24" stroke-width="1" stroke-dasharray="3,3" stroke-opacity="0.6"/>
  <circle cx="478" cy="220" r="4" fill="none" stroke="#fbbf24" stroke-width="1.5"/>
  <text x="483" y="138" fill="#fbbf24" font-size="8" font-family="monospace" transform="rotate(-90,483,138)">BOE PEAK</text>

  <!-- Key dots on total line -->
  <circle cx="60"  cy="320" r="3.5" fill="#00e5ff"/>
  <circle cx="228" cy="255" r="3.5" fill="#00e5ff"/>
  <circle cx="396" cy="340" r="3.5" fill="#00e5ff"/>
  <circle cx="564" cy="205" r="4.5" fill="#00e5ff"/>
  <circle cx="748" cy="228" r="3.5" fill="#00e5ff"/>

  <!-- Axis labels -->
  <text x="58"  y="478" fill="#2a3854" font-size="9" font-family="monospace">2022</text>
  <text x="220" y="478" fill="#2a3854" font-size="9" font-family="monospace">2023</text>
  <text x="388" y="478" fill="#2a3854" font-size="9" font-family="monospace">2024</text>
  <text x="556" y="478" fill="#2a3854" font-size="9" font-family="monospace">2025</text>

  <!-- Legend -->
  <line x1="60" y1="533" x2="84" y2="533" stroke="#00e5ff" stroke-width="2.5"/>
  <text x="89" y="537" fill="#4a5a78" font-size="10" font-family="monospace">UK-CCI TOTAL</text>
  <line x1="200" y1="533" x2="218" y2="533" stroke="#f43f5e" stroke-width="1.5"/>
  <text x="223" y="537" fill="#4a5a78" font-size="10" font-family="monospace">LARGE EXPENSES</text>
  <line x1="355" y1="533" x2="373" y2="533" stroke="#818cf8" stroke-width="1.5"/>
  <text x="378" y="537" fill="#4a5a78" font-size="10" font-family="monospace">SAVINGS</text>

  <!-- Title label -->
  <text x="60" y="58" fill="#3a4a68" font-size="10" font-family="monospace" letter-spacing="3">UK CONSUMER CONFIDENCE · AUTOENCODER + SHAP</text>
</svg>
